<svg xmlns="http://www.w3.org/2000/svg" viewBox="0 0 800 600">
  <defs>
    <linearGradient id="fieldGradient" x1="0%" y1="0%" x2="0%" y2="100%">
      <stop offset="0%" style="stop-color:#115511;stop-opacity:1" />
      <stop offset="50%" style="stop-color:#0e4a0e;stop-opacity:1" />
      <stop offset="100%" style="stop-color:#115511;stop-opacity:1" />
    </linearGradient>
    
    <pattern id="grassPattern" x="0" y="0" width="40" height="40" patternUnits="userSpaceOnUse">
      <path d="M0,20 L40,20" stroke="#1a661a" stroke-width="1" opacity="0.2"/>
      <path d="M20,0 L20,40" stroke="#1a661a" stroke-width="1" opacity="0.2"/>
    </pattern>
  </defs>

  <rect width="800" height="600" fill="url(#fieldGradient)"/>
  <rect width="800" height="600" fill="url(#grassPattern)"/>
  
  <!-- Yard lines -->
  <g opacity="0.3">
    <line x1="0" y1="150" x2="800" y2="150" stroke="white" stroke-width="4"/>
    <line x1="0" y1="300" x2="800" y2="300" stroke="white" stroke-width="4"/>
    <line x1="0" y1="450" x2="800" y2="450" stroke="white" stroke-width="4"/>
  </g>

  <!-- Abstract Football -->
  <g transform="translate(400, 450)">
    <ellipse cx="0" cy="0" rx="120" ry="70" fill="#703800" opacity="0.8"/>
    <path d="M-60,-20 Q0,-35 60,-20 Q70,-15 70,0 Q70,15 60,20 Q0,35 -60,20 Q-70,15 -70,0 Q-70,-15 -60,-20" 
          fill="none" stroke="white" stroke-width="3" opacity="0.6"/>
  </g>
</svg>
